<svg width="32" height="33" viewBox="0 0 32 33" fill="none" xmlns="http://www.w3.org/2000/svg">
<path d="M11.2904 11.6927L11.2874 11.6952L11.2845 11.6979L11.2904 11.6927ZM24.5626 11.444C24.4698 11.3546 24.3669 11.2764 24.2559 11.2109C24.0988 11.1185 23.9244 11.0592 23.7435 11.0369C23.5626 11.0145 23.3791 11.0294 23.2042 11.0808C23.0293 11.1322 22.8668 11.2189 22.7268 11.3356C22.5867 11.4522 22.4721 11.5964 22.39 11.7591C21.9307 12.664 21.2973 13.4694 20.526 14.1289C20.6439 13.4644 20.7034 12.7908 20.7037 12.1159C20.7062 10.0627 20.1646 8.0455 19.1339 6.2697C18.1033 4.49391 16.6205 3.02294 14.8365 2.00655C14.64 1.89515 14.4184 1.8355 14.1925 1.8332C13.9666 1.8309 13.7439 1.88603 13.5451 1.99341C13.3464 2.10079 13.1782 2.2569 13.0563 2.4471C12.9344 2.6373 12.8628 2.85534 12.8483 3.08078C12.7737 4.34501 12.4432 5.58093 11.8768 6.71367C11.3104 7.8464 10.52 8.85236 9.55338 9.67059L9.24608 9.92059C8.2353 10.6007 7.34061 11.4391 6.59635 12.4037C5.43943 13.8611 4.63801 15.5681 4.25562 17.3892C3.87324 19.2103 3.92041 21.0955 4.39341 22.8952C4.8664 24.6949 5.75221 26.3597 6.98057 27.7575C8.20894 29.1553 9.74608 30.2476 11.4701 30.9479C11.6725 31.0307 11.8922 31.0623 12.1097 31.04C12.3273 31.0178 12.536 30.9423 12.7175 30.8204C12.899 30.6984 13.0476 30.5336 13.1504 30.3406C13.2532 30.1476 13.3068 29.9322 13.3067 29.7136C13.3058 29.5721 13.2834 29.4316 13.2403 29.2969C12.942 28.1756 12.8561 27.0084 12.987 25.8555C14.2487 28.2351 16.2739 30.1213 18.737 31.211C19.0377 31.3455 19.3776 31.3636 19.6908 31.2617C21.6369 30.6336 23.3901 29.5183 24.7837 28.0218C26.1773 26.5253 27.1652 24.6973 27.6533 22.7115C28.1415 20.7257 28.1138 18.648 27.5728 16.6759C27.0319 14.7038 25.9956 12.9028 24.5626 11.444V11.444ZM19.3562 28.5521C18.1939 27.9631 17.1687 27.136 16.347 26.1247C15.5254 25.1134 14.9258 23.9405 14.5873 22.6823C14.4839 22.2587 14.4039 21.8296 14.3477 21.3972C14.3096 21.1218 14.1864 20.8651 13.9953 20.6632C13.8042 20.4613 13.5548 20.3241 13.2819 20.2708C13.1979 20.2543 13.1124 20.246 13.0267 20.2461C12.7924 20.246 12.5621 20.3077 12.3593 20.425C12.1564 20.5423 11.988 20.711 11.8711 20.9141C10.7648 22.8223 10.2084 24.9995 10.2637 27.2045C9.29067 26.448 8.47748 25.5058 7.87125 24.4327C7.26502 23.3596 6.8778 22.1769 6.73204 20.953C6.58628 19.7291 6.68488 18.4885 7.02211 17.303C7.35935 16.1176 7.92851 15.0108 8.69663 14.0469C9.27985 13.2894 9.98342 12.6326 10.7793 12.1029C10.8138 12.0807 10.8468 12.0563 10.8783 12.03C10.8783 12.03 11.2738 11.7027 11.2874 11.6952C13.187 10.0885 14.538 7.92922 15.1523 5.51829C16.6051 6.86126 17.5738 8.64632 17.908 10.5963C18.2422 12.5463 17.9233 14.552 17.0007 16.3021C16.8788 16.5357 16.8288 16.8001 16.857 17.062C16.8851 17.3239 16.9903 17.5716 17.1591 17.7739C17.3279 17.9761 17.5528 18.1238 17.8055 18.1984C18.0581 18.2729 18.3272 18.271 18.5788 18.1928C20.6212 17.5526 22.4184 16.302 23.7285 14.6095C24.5159 15.7725 25.0307 17.0983 25.2345 18.488C25.4383 19.8776 25.3259 21.2954 24.9056 22.6355C24.4854 23.9757 23.7681 25.2038 22.8072 26.2282C21.8463 27.2526 20.6667 28.047 19.3561 28.5521L19.3562 28.5521Z" fill="#191918"/>
</svg>
