<svg width="32" height="33" viewBox="0 0 32 33" fill="none" xmlns="http://www.w3.org/2000/svg">
<path d="M24 9.83322H23.5333C23.8376 9.21024 23.9972 8.52654 24 7.83322C24.004 6.90432 23.73 5.99547 23.2131 5.22366C22.6962 4.45185 21.9601 3.8524 21.0997 3.50247C20.2392 3.15254 19.2937 3.06816 18.3848 3.26017C17.476 3.45218 16.6454 3.91181 16 4.57989C15.3546 3.91181 14.524 3.45218 13.6152 3.26017C12.7063 3.06816 11.7608 3.15254 10.9003 3.50247C10.0399 3.8524 9.30381 4.45185 8.78692 5.22366C8.27003 5.99547 7.99596 6.90432 8 7.83322C8.00285 8.52654 8.16238 9.21024 8.46667 9.83322H8C6.93913 9.83322 5.92172 10.2546 5.17157 11.0048C4.42143 11.7549 4 12.7724 4 13.8332V16.4999C4 16.8535 4.14048 17.1926 4.39052 17.4427C4.64057 17.6927 4.97971 17.8332 5.33333 17.8332H6.66667V25.8332C6.66667 26.8941 7.08809 27.9115 7.83824 28.6616C8.58839 29.4118 9.6058 29.8332 10.6667 29.8332H21.3333C22.3942 29.8332 23.4116 29.4118 24.1618 28.6616C24.9119 27.9115 25.3333 26.8941 25.3333 25.8332V17.8332H26.6667C27.0203 17.8332 27.3594 17.6927 27.6095 17.4427C27.8595 17.1926 28 16.8535 28 16.4999V13.8332C28 12.7724 27.5786 11.7549 26.8284 11.0048C26.0783 10.2546 25.0609 9.83322 24 9.83322ZM14.6667 27.1666H10.6667C10.313 27.1666 9.97391 27.0261 9.72386 26.776C9.47381 26.526 9.33333 26.1868 9.33333 25.8332V17.8332H14.6667V27.1666ZM14.6667 15.1666H6.66667V13.8332C6.66667 13.4796 6.80714 13.1405 7.05719 12.8904C7.30724 12.6404 7.64638 12.4999 8 12.4999H14.6667V15.1666ZM14.6667 9.83322H12.6667C12.2711 9.83322 11.8844 9.71592 11.5555 9.49616C11.2266 9.2764 10.9703 8.96404 10.8189 8.59859C10.6675 8.23314 10.6279 7.831 10.7051 7.44304C10.7823 7.05508 10.9727 6.69871 11.2525 6.41901C11.5322 6.1393 11.8885 5.94882 12.2765 5.87165C12.6644 5.79448 13.0666 5.83409 13.432 5.98546C13.7975 6.13684 14.1098 6.39318 14.3296 6.72208C14.5494 7.05098 14.6667 7.43766 14.6667 7.83322V9.83322ZM17.3333 7.83322C17.3333 7.43766 17.4506 7.05098 17.6704 6.72208C17.8902 6.39318 18.2025 6.13684 18.568 5.98546C18.9334 5.83409 19.3356 5.79448 19.7235 5.87165C20.1115 5.94882 20.4678 6.1393 20.7475 6.41901C21.0273 6.69871 21.2177 7.05508 21.2949 7.44304C21.3721 7.831 21.3325 8.23314 21.1811 8.59859C21.0297 8.96404 20.7734 9.2764 20.4445 9.49616C20.1156 9.71592 19.7289 9.83322 19.3333 9.83322H17.3333V7.83322ZM22.6667 25.8332C22.6667 26.1868 22.5262 26.526 22.2761 26.776C22.0261 27.0261 21.687 27.1666 21.3333 27.1666H17.3333V17.8332H22.6667V25.8332ZM25.3333 15.1666H17.3333V12.4999H24C24.3536 12.4999 24.6928 12.6404 24.9428 12.8904C25.1929 13.1405 25.3333 13.4796 25.3333 13.8332V15.1666Z" fill="#191918"/>
</svg>
