<svg width="32" height="33" viewBox="0 0 32 33" fill="none" xmlns="http://www.w3.org/2000/svg">
<path d="M26.88 7.16668C25.4666 5.74963 23.593 4.88474 21.5977 4.72824C19.6025 4.57175 17.617 5.13397 16 6.31335C14.3035 5.05153 12.192 4.47937 10.0905 4.71207C7.98909 4.94477 6.05388 5.96505 4.67459 7.56746C3.2953 9.16987 2.57439 11.2354 2.65703 13.348C2.73967 15.4607 3.61972 17.4636 5.11996 18.9534L13.4 27.2467C14.0933 27.9291 15.0271 28.3115 16 28.3115C16.9728 28.3115 17.9066 27.9291 18.6 27.2467L26.88 18.9534C28.4367 17.387 29.3105 15.2684 29.3105 13.06C29.3105 10.8517 28.4367 8.73299 26.88 7.16668V7.16668ZM25 17.1134L16.72 25.3934C16.6257 25.4885 16.5136 25.564 16.39 25.6156C16.2664 25.6671 16.1339 25.6936 16 25.6936C15.8661 25.6936 15.7335 25.6671 15.6099 25.6156C15.4863 25.564 15.3742 25.4885 15.28 25.3934L6.99996 17.0734C5.9543 16.0045 5.36877 14.5686 5.36877 13.0734C5.36877 11.5781 5.9543 10.1422 6.99996 9.07335C8.0655 8.02133 9.50259 7.43144 11 7.43144C12.4973 7.43144 13.9344 8.02133 15 9.07335C15.1239 9.19832 15.2714 9.29751 15.4339 9.36521C15.5963 9.4329 15.7706 9.46775 15.9466 9.46775C16.1226 9.46775 16.2969 9.4329 16.4594 9.36521C16.6219 9.29751 16.7693 9.19832 16.8933 9.07335C17.9588 8.02133 19.3959 7.43144 20.8933 7.43144C22.3907 7.43144 23.8278 8.02133 24.8933 9.07335C25.9533 10.1282 26.5581 11.5563 26.578 13.0516C26.598 14.5469 26.0315 15.9906 25 17.0734V17.1134Z" fill="#191918"/>
</svg>
