<svg width="32" height="33" viewBox="0 0 32 33" fill="none" xmlns="http://www.w3.org/2000/svg">
<path d="M11.3467 17.14C11.083 17.14 10.8252 17.2182 10.6059 17.3647C10.3867 17.5112 10.2158 17.7195 10.1149 17.9631C10.0139 18.2067 9.98754 18.4748 10.039 18.7335C10.0904 18.9921 10.2174 19.2297 10.4039 19.4162C10.5904 19.6026 10.8279 19.7296 11.0866 19.7811C11.3452 19.8325 11.6133 19.8061 11.8569 19.7052C12.1006 19.6043 12.3088 19.4334 12.4553 19.2141C12.6018 18.9948 12.68 18.7371 12.68 18.4733C12.68 18.1197 12.5396 17.7806 12.2895 17.5305C12.0395 17.2805 11.7003 17.14 11.3467 17.14ZM11.3467 11.1667C11.083 11.1667 10.8252 11.2449 10.6059 11.3914C10.3867 11.5379 10.2158 11.7461 10.1149 11.9898C10.0139 12.2334 9.98754 12.5015 10.039 12.7601C10.0904 13.0188 10.2174 13.2563 10.4039 13.4428C10.5904 13.6293 10.8279 13.7563 11.0866 13.8077C11.3452 13.8592 11.6133 13.8328 11.8569 13.7318C12.1006 13.6309 12.3088 13.46 12.4553 13.2408C12.6018 13.0215 12.68 12.7637 12.68 12.5C12.68 12.1464 12.5396 11.8072 12.2895 11.5572C12.0395 11.3072 11.7003 11.1667 11.3467 11.1667ZM16 13.8333C15.6464 13.8333 15.3073 13.9738 15.0572 14.2239C14.8072 14.4739 14.6667 14.8131 14.6667 15.1667V16.5C14.6667 16.8536 14.8072 17.1928 15.0572 17.4428C15.3073 17.6929 15.6464 17.8333 16 17.8333C16.3537 17.8333 16.6928 17.6929 16.9428 17.4428C17.1929 17.1928 17.3334 16.8536 17.3334 16.5V15.1667C17.3334 14.8131 17.1929 14.4739 16.9428 14.2239C16.6928 13.9738 16.3537 13.8333 16 13.8333ZM27.3334 11.9267C26.8734 11.662 26.3654 11.4915 25.8389 11.4252C25.3124 11.3588 24.778 11.3978 24.2667 11.54C23.7346 11.6825 23.2391 11.9371 22.8134 12.2867L7.3467 3.34001C7.14401 3.22299 6.91409 3.16138 6.68004 3.16138C6.44599 3.16138 6.21606 3.22299 6.01337 3.34001C5.80741 3.45578 5.63592 3.62419 5.51644 3.82801C5.39695 4.03184 5.33378 4.26375 5.33337 4.50001V22.06C4.54651 22.3254 3.86426 22.8339 3.385 23.512C2.90574 24.1902 2.65422 25.003 2.6667 25.8333C2.66633 26.876 3.07309 27.8776 3.80032 28.6247C4.52754 29.3719 5.51777 29.8055 6.56004 29.8333H7.33337C11.7024 29.8231 15.9908 28.6569 19.7634 26.4534C23.536 24.2498 26.6583 21.0872 28.8134 17.2867C29.3111 16.3773 29.4364 15.3103 29.1628 14.3104C28.8892 13.3105 28.2381 12.4559 27.3467 11.9267H27.3334ZM8.00004 6.80668L21.1867 14.42C19.7238 16.603 17.768 18.4113 15.4774 19.6991C13.1867 20.9869 10.6253 21.718 8.00004 21.8333V6.80668ZM26.4934 15.98C24.514 19.4676 21.6232 22.351 18.1307 24.3216C14.6381 26.2922 10.6753 27.2756 6.6667 27.1667C6.31308 27.1667 5.97394 27.0262 5.72389 26.7762C5.47385 26.5261 5.33337 26.187 5.33337 25.8333C5.33233 25.6547 5.3672 25.4777 5.43591 25.3127C5.50463 25.1478 5.60578 24.9984 5.73337 24.8733C5.98386 24.6319 6.3188 24.4979 6.6667 24.5H7.3467C10.7703 24.4986 14.1322 23.5881 17.0886 21.8616C20.045 20.1351 22.4899 17.6545 24.1734 14.6733C24.2543 14.5271 24.3649 14.3994 24.4981 14.2983C24.6312 14.1973 24.784 14.1252 24.9467 14.0867C25.2829 13.9944 25.6419 14.0375 25.9467 14.2067C26.2526 14.3711 26.4823 14.6484 26.5869 14.9796C26.6915 15.3108 26.6627 15.6697 26.5067 15.98H26.4934Z" fill="#191918"/>
</svg>
