<svg width="32" height="33" viewBox="0 0 32 33" fill="none" xmlns="http://www.w3.org/2000/svg">
<path d="M16 15.1667C15.7363 15.1667 15.4785 15.2449 15.2593 15.3915C15.04 15.538 14.8691 15.7462 14.7682 15.9898C14.6673 16.2335 14.6409 16.5016 14.6923 16.7602C14.7438 17.0188 14.8708 17.2564 15.0572 17.4429C15.2437 17.6294 15.4813 17.7563 15.7399 17.8078C15.9986 17.8592 16.2667 17.8328 16.5103 17.7319C16.7539 17.631 16.9622 17.4601 17.1087 17.2408C17.2552 17.0216 17.3334 16.7638 17.3334 16.5001C17.3334 16.1465 17.1929 15.8073 16.9429 15.5573C16.6928 15.3072 16.3537 15.1667 16 15.1667ZM26.16 16.5001L26.3067 16.3134C28.1067 13.8334 28.5334 11.5534 27.5467 9.83341C26.56 8.11341 24.3467 7.35341 21.3334 7.66008H21.0934C19.88 4.90008 18.08 3.16675 16 3.16675C13.92 3.16675 12.12 4.90008 10.92 7.70008L10.6667 7.66008C7.65338 7.35341 5.44004 8.11341 4.45338 9.83341C3.46671 11.5534 3.89338 13.8334 5.69338 16.3134L5.84004 16.5001L5.69338 16.6867C3.89338 19.1667 3.46671 21.4467 4.45338 23.1667C5.33338 24.6334 7.02671 25.4067 9.33338 25.4067C9.74671 25.4067 10.1734 25.4067 10.6667 25.3401H10.9067C12.12 28.1001 13.92 29.8334 16 29.8334C18.08 29.8334 19.88 28.1001 21.08 25.3001H21.32C21.7734 25.3001 22.2 25.3667 22.6534 25.3667C25.0134 25.3667 26.7467 24.5934 27.5867 23.1267C28.5734 21.4067 28.1467 19.1267 26.3467 16.6467L26.16 16.5001ZM6.76004 11.1667C7.09338 10.5801 8.09338 10.2601 9.42671 10.2601H10.08C9.8711 11.0803 9.71523 11.9131 9.61338 12.7534C8.9341 13.2672 8.28834 13.8239 7.68004 14.4201C6.66671 13.0867 6.37338 11.8334 6.76004 11.1667ZM6.76004 21.8334C6.37338 21.1667 6.76004 19.9134 7.65338 18.5401C8.26167 19.1362 8.90743 19.6929 9.58671 20.2067C9.68858 21.0514 9.84445 21.8887 10.0534 22.7134C8.40004 22.8201 7.14671 22.5001 6.76004 21.8334ZM16 5.83341C16.7467 5.83341 17.64 6.71341 18.4 8.27341C17.5855 8.50983 16.7843 8.79025 16 9.11341C15.2158 8.79025 14.4146 8.50983 13.6 8.27341C14.36 6.71341 15.2534 5.83341 16 5.83341ZM16 27.1667C15.2534 27.1667 14.36 26.2867 13.6 24.7267C14.4146 24.4903 15.2158 24.2099 16 23.8867C16.7843 24.2099 17.5855 24.4903 18.4 24.7267C17.64 26.2867 16.7467 27.1667 16 27.1667ZM19.9067 18.7534C19.2934 19.1801 18.6667 19.5801 18 19.9667C17.3334 20.3534 16.6667 20.7001 16 21.0067C15.3334 20.6956 14.6667 20.349 14 19.9667C13.3334 19.5801 12.6667 19.1801 12.0934 18.7534C12 18.0334 12 17.2867 12 16.5001C12 15.7134 12 14.9667 12.0934 14.2467C12.7067 13.8201 13.3334 13.4201 14 13.0334C14.6667 12.6467 15.3334 12.3001 16 11.9934C16.6667 12.3045 17.3334 12.6512 18 13.0334C18.6667 13.4201 19.3334 13.8201 19.9067 14.2467C19.9067 14.9667 20 15.7134 20 16.5001C20 17.2867 20 18.0334 19.9067 18.7534V18.7534ZM25.24 21.8334C24.8534 22.5001 23.6 22.8334 21.9467 22.7134C22.1556 21.8887 22.3115 21.0514 22.4134 20.2067C23.0927 19.6929 23.7384 19.1362 24.3467 18.5401C25.3334 19.9134 25.6267 21.1667 25.24 21.8334ZM24.3467 14.4601C23.7384 13.8639 23.0927 13.3072 22.4134 12.7934C22.3115 11.9531 22.1556 11.1203 21.9467 10.3001H22.6C23.9334 10.3001 24.9067 10.6201 25.2667 11.2067C25.6267 11.7934 25.3334 13.0867 24.3467 14.4601V14.4601Z" fill="#191918"/>
</svg>
