<svg width="32" height="33" viewBox="0 0 32 33" fill="none" xmlns="http://www.w3.org/2000/svg">
<path d="M28.0001 15.4867C27.9935 15.4515 27.9935 15.4153 28.0001 15.3801V15.1267C28.0001 14.8201 27.9201 14.5134 27.8667 14.2067C27.8591 14.1358 27.8591 14.0643 27.8667 13.9934C27.8001 13.6601 27.7067 13.3401 27.6134 13.0201C27.0433 11.1797 26.0342 9.50563 24.673 8.14213C23.3118 6.77864 21.6394 5.76665 19.8001 5.19341H19.6934C19.4001 5.10008 19.0934 5.02008 18.7867 4.95341H18.5467C18.3044 4.90484 18.0596 4.86923 17.8134 4.84675H17.4934V4.50008C17.4934 4.14646 17.3529 3.80732 17.1029 3.55727C16.8528 3.30722 16.5137 3.16675 16.1601 3.16675C15.8064 3.16675 15.4673 3.30722 15.2173 3.55727C14.9672 3.80732 14.8267 4.14646 14.8267 4.50008V4.58008C14.378 4.63404 13.9328 4.71417 13.4934 4.82008C13.2133 4.87236 12.9371 4.94363 12.6667 5.03341H12.4934C12.1601 5.14008 11.8534 5.26008 11.5334 5.38008C9.88699 6.03196 8.40672 7.04286 7.20039 8.33914C5.99406 9.63543 5.09206 11.1845 4.56006 12.8734C4.55546 12.9088 4.55546 12.9447 4.56006 12.9801C4.457 13.2949 4.37241 13.6154 4.30673 13.9401V14.1534C4.23562 14.4734 4.18228 14.8067 4.14673 15.1534C4.14673 15.1534 4.14673 15.2467 4.14673 15.3001C4.14673 15.3534 4.14673 15.3801 4.14673 15.4201C4.14673 15.4601 4.14673 15.4201 4.14673 15.4867C4.14673 15.8201 4.14673 16.1534 4.14673 16.5001C4.14673 16.8537 4.2872 17.1928 4.53725 17.4429C4.7873 17.6929 5.12644 17.8334 5.48006 17.8334H14.8134V25.8334C14.8134 26.187 14.6729 26.5262 14.4229 26.7762C14.1728 27.0263 13.8337 27.1667 13.4801 27.1667C13.1264 27.1667 12.7873 27.0263 12.5373 26.7762C12.2872 26.5262 12.1467 26.187 12.1467 25.8334C12.1467 25.4798 12.0063 25.1407 11.7562 24.8906C11.5062 24.6406 11.167 24.5001 10.8134 24.5001C10.4598 24.5001 10.1206 24.6406 9.87059 24.8906C9.62054 25.1407 9.48006 25.4798 9.48006 25.8334C9.48006 26.8943 9.90149 27.9117 10.6516 28.6618C11.4018 29.412 12.4192 29.8334 13.4801 29.8334C14.5409 29.8334 15.5583 29.412 16.3085 28.6618C17.0586 27.9117 17.4801 26.8943 17.4801 25.8334V17.8334H26.8134C27.167 17.8334 27.5062 17.6929 27.7562 17.4429C28.0063 17.1928 28.1467 16.8537 28.1467 16.5001C28.0001 16.1534 28.0001 15.8201 28.0001 15.4867ZM10.6667 15.1667H6.7734C6.7734 15.1667 6.7734 15.0734 6.7734 15.0201C6.7734 14.9667 6.7734 14.6467 6.88006 14.4734C6.98673 14.3001 6.88006 14.3001 6.88006 14.2201C6.88006 14.1401 6.98673 13.7934 7.0534 13.5801V13.4734C7.48012 12.2642 8.15143 11.1559 9.02545 10.2177C9.89947 9.27944 10.9575 8.53134 12.1334 8.02008C11.2401 10.3011 10.744 12.7183 10.6667 15.1667V15.1667ZM13.3334 15.1667C13.5867 9.95341 15.2534 7.16675 16.0001 7.16675C16.7467 7.16675 18.3867 9.95341 18.6667 15.1667H13.3334ZM21.3334 15.1667C21.2561 12.7183 20.7601 10.3011 19.8667 8.02008C21.0268 8.54767 22.0666 9.30726 22.9219 10.252C23.7773 11.1968 24.4301 12.3067 24.8401 13.5134V13.5134C24.9208 13.7448 24.9875 13.9808 25.0401 14.2201C25.034 14.2866 25.034 14.3536 25.0401 14.4201C25.0401 14.6067 25.1201 14.8067 25.1467 14.9934C25.1734 15.1801 25.1467 15.0867 25.1467 15.1401L21.3334 15.1667Z" fill="#191918"/>
</svg>
