<svg width="32" height="33" viewBox="0 0 32 33" fill="none" xmlns="http://www.w3.org/2000/svg">
<path d="M26.2399 9.67342C24.8813 8.95935 23.2969 8.80617 21.8266 9.24675C21.755 7.75137 21.1106 6.34093 20.027 5.30796C18.9433 4.27498 17.5037 3.69873 16.0066 3.69873C14.5095 3.69873 13.0699 4.27498 11.9863 5.30796C10.9026 6.34093 10.2582 7.75137 10.1866 9.24675C8.72031 8.80517 7.14043 8.94359 5.77327 9.63342C4.76646 10.1626 3.93655 10.9749 3.38588 11.9701C2.83521 12.9653 2.58786 14.0999 2.67434 15.2341C2.76081 16.3682 3.17733 17.4522 3.87253 18.3524C4.56773 19.2526 5.5112 19.9297 6.5866 20.3001C5.90019 21.2768 5.52807 22.4397 5.51994 23.6334C5.52586 23.9686 5.55706 24.3029 5.61327 24.6334C5.83781 25.9875 6.53634 27.2176 7.58413 28.1042C8.63191 28.9908 9.96072 29.4761 11.3333 29.4734C11.6174 29.4929 11.9025 29.4929 12.1866 29.4734C13.7106 29.2333 15.0798 28.4052 15.9999 27.1667C16.9297 28.3851 18.2975 29.1934 19.8133 29.4201C20.0974 29.4396 20.3825 29.4396 20.6666 29.4201C21.7308 29.4189 22.7742 29.1255 23.6832 28.5721C24.5922 28.0186 25.3318 27.2263 25.8214 26.2814C26.311 25.3365 26.5319 24.2754 26.4599 23.2136C26.3879 22.1519 26.0259 21.1302 25.4133 20.2601C26.4939 19.8961 27.4437 19.2223 28.1443 18.3226C28.8449 17.4229 29.2654 16.337 29.3535 15.2001C29.4416 14.0632 29.1934 12.9255 28.6398 11.9286C28.0862 10.9317 27.2516 10.1196 26.2399 9.59342V9.67342ZM13.7866 7.08675C14.3823 6.51629 15.1752 6.19784 15.9999 6.19784C16.8247 6.19784 17.6176 6.51629 18.2133 7.08675C18.668 7.5422 18.9769 8.12278 19.1003 8.75444C19.2238 9.38611 19.1564 10.0402 18.9066 10.6334L18.5599 11.4201L17.6799 12.1934C17.1389 12.0077 16.5719 11.9087 15.9999 11.9001C15.2607 11.9008 14.5297 12.0552 13.8533 12.3534L13.1066 10.6334C12.8478 10.0429 12.7743 9.38769 12.8957 8.75446C13.0171 8.12123 13.3278 7.53972 13.7866 7.08675V7.08675ZM5.65327 16.2067C5.35561 15.5518 5.29037 14.8148 5.46832 14.1177C5.64627 13.4207 6.05677 12.8052 6.63195 12.373C7.20713 11.9408 7.91256 11.7179 8.63163 11.741C9.3507 11.7641 10.0404 12.0319 10.5866 12.5001L11.2399 13.0734L11.7066 14.1401C11.0387 15.0338 10.6742 16.1177 10.6666 17.2334C10.6508 17.4331 10.6508 17.6337 10.6666 17.8334H9.93327L8.81327 17.9401C8.17267 18.0077 7.5267 17.8779 6.96192 17.5681C6.39715 17.2583 5.94054 16.7833 5.65327 16.2067V16.2067ZM14.4533 24.3134C14.2928 25.0252 13.8919 25.6599 13.3181 26.1107C12.7443 26.5615 12.0328 26.8007 11.3032 26.7882C10.5737 26.7757 9.87071 26.5121 9.31275 26.0419C8.7548 25.5717 8.37592 24.9236 8.23994 24.2067C8.22715 24.0203 8.22715 23.8332 8.23994 23.6467C8.24477 23.1048 8.39129 22.5736 8.66495 22.1058C8.93862 21.638 9.3299 21.2499 9.79994 20.9801L10.4799 20.5001L11.6933 20.3667C12.458 21.4306 13.5876 22.1758 14.8666 22.4601L14.4533 24.3134ZM15.9999 19.9001C15.4725 19.9001 14.9569 19.7437 14.5184 19.4507C14.0799 19.1577 13.7381 18.7412 13.5363 18.2539C13.3344 17.7666 13.2816 17.2305 13.3845 16.7132C13.4874 16.1959 13.7414 15.7207 14.1143 15.3478C14.4873 14.9749 14.9624 14.7209 15.4797 14.618C15.997 14.5151 16.5332 14.5679 17.0204 14.7697C17.5077 14.9716 17.9242 15.3134 18.2172 15.7519C18.5102 16.1904 18.6666 16.706 18.6666 17.2334C18.6666 17.9407 18.3857 18.6189 17.8856 19.119C17.3855 19.6191 16.7072 19.9001 15.9999 19.9001ZM23.7599 24.1934C23.6224 25.007 23.1708 25.7339 22.5024 26.2177C21.8341 26.7016 21.0024 26.9035 20.1866 26.7801C19.5438 26.6895 18.9439 26.4047 18.4674 25.9639C17.9908 25.5231 17.6603 24.9472 17.5199 24.3134L17.3333 23.5134L17.6133 22.2867C18.8433 21.8862 19.8858 21.0522 20.5466 19.9401L21.2133 20.3401H21.3333L22.2133 20.8601C22.785 21.1866 23.2411 21.6828 23.5182 22.2801C23.7953 22.8773 23.8798 23.546 23.7599 24.1934V24.1934ZM26.3466 16.1934C26.0844 16.7234 25.6798 17.1699 25.1783 17.4831C24.6767 17.7963 24.0979 17.9638 23.5066 17.9667H23.1866L22.3333 17.8334L21.3333 17.2867C21.3314 15.9904 20.8574 14.739 19.9999 13.7667L20.5733 13.2734L21.4133 12.5001C21.9611 12.0131 22.6611 11.7316 23.3936 11.704C24.1261 11.6763 24.8454 11.9042 25.4283 12.3485C26.0113 12.7928 26.4217 13.426 26.5892 14.1395C26.7567 14.8531 26.671 15.6028 26.3466 16.2601V16.1934Z" fill="#191918"/>
</svg>
