<svg width="32" height="33" viewBox="0 0 32 33" fill="none" xmlns="http://www.w3.org/2000/svg">
<path d="M29.2268 15.9666C26.5334 9.71325 21.4668 5.83325 16.0001 5.83325C10.5334 5.83325 5.46676 9.71325 2.77342 15.9666C2.7 16.1348 2.66211 16.3164 2.66211 16.4999C2.66211 16.6835 2.7 16.865 2.77342 17.0333C5.46676 23.2866 10.5334 27.1666 16.0001 27.1666C21.4668 27.1666 26.5334 23.2866 29.2268 17.0333C29.3002 16.865 29.3381 16.6835 29.3381 16.4999C29.3381 16.3164 29.3002 16.1348 29.2268 15.9666V15.9666ZM16.0001 24.4999C11.7734 24.4999 7.77342 21.4466 5.46676 16.4999C7.77342 11.5533 11.7734 8.49992 16.0001 8.49992C20.2268 8.49992 24.2268 11.5533 26.5334 16.4999C24.2268 21.4466 20.2268 24.4999 16.0001 24.4999ZM16.0001 11.1666C14.9453 11.1666 13.9141 11.4794 13.037 12.0654C12.16 12.6514 11.4764 13.4844 11.0727 14.4589C10.6691 15.4335 10.5634 16.5058 10.7692 17.5404C10.975 18.575 11.483 19.5253 12.2289 20.2712C12.9747 21.017 13.925 21.525 14.9596 21.7308C15.9942 21.9366 17.0665 21.8309 18.0411 21.4273C19.0156 21.0236 19.8486 20.34 20.4346 19.463C21.0206 18.5859 21.3334 17.5548 21.3334 16.4999C21.3334 15.0854 20.7715 13.7289 19.7713 12.7287C18.7711 11.7285 17.4146 11.1666 16.0001 11.1666V11.1666ZM16.0001 19.1666C15.4727 19.1666 14.9571 19.0102 14.5186 18.7172C14.08 18.4242 13.7382 18.0077 13.5364 17.5204C13.3346 17.0331 13.2818 16.497 13.3847 15.9797C13.4876 15.4624 13.7415 14.9872 14.1145 14.6143C14.4874 14.2414 14.9626 13.9874 15.4798 13.8845C15.9971 13.7816 16.5333 13.8344 17.0206 14.0362C17.5078 14.2381 17.9243 14.5799 18.2173 15.0184C18.5104 15.4569 18.6668 15.9725 18.6668 16.4999C18.6668 17.2072 18.3858 17.8854 17.8857 18.3855C17.3856 18.8856 16.7073 19.1666 16.0001 19.1666Z" fill="#191918"/>
</svg>
