<svg width="32" height="33" viewBox="0 0 32 33" fill="none" xmlns="http://www.w3.org/2000/svg">
<path d="M24.5601 12.78C23.7445 10.9077 22.3374 9.35463 20.5544 8.35884C18.7715 7.36305 16.7111 6.97952 14.6893 7.26706C12.6674 7.5546 10.7957 8.49733 9.36105 9.95071C7.92641 11.4041 7.00804 13.2879 6.74676 15.3133C5.47554 15.6177 4.36039 16.3784 3.61308 17.4509C2.86577 18.5234 2.53834 19.8329 2.69298 21.1309C2.84762 22.4289 3.47356 23.6249 4.45192 24.4918C5.43028 25.3587 6.69294 25.8361 8.0001 25.8333H22.6668C24.2659 25.8289 25.8102 25.2498 27.0179 24.2017C28.2257 23.1535 29.0165 21.7062 29.246 20.1236C29.4756 18.541 29.1286 16.9287 28.2684 15.5806C27.4082 14.2325 26.0921 13.2385 24.5601 12.78V12.78ZM22.6668 23.1666H8.0001C7.29285 23.1666 6.61458 22.8857 6.11448 22.3856C5.61438 21.8855 5.33343 21.2072 5.33343 20.5C5.33343 19.7927 5.61438 19.1144 6.11448 18.6143C6.61458 18.1142 7.29285 17.8333 8.0001 17.8333C8.35372 17.8333 8.69286 17.6928 8.94291 17.4428C9.19295 17.1927 9.33343 16.8536 9.33343 16.5C9.33684 14.923 9.89915 13.3983 10.9205 12.1967C11.9418 10.9952 13.356 10.1946 14.9118 9.93713C16.4676 9.67969 18.0643 9.9821 19.4182 10.7906C20.7721 11.5992 21.7956 12.8615 22.3068 14.3533C22.385 14.5799 22.5229 14.7813 22.7059 14.9362C22.8889 15.091 23.1103 15.1937 23.3468 15.2333C24.3241 15.4136 25.1993 15.9513 25.8019 16.7417C26.4044 17.532 26.6912 18.5183 26.6063 19.5085C26.5215 20.4987 26.071 21.4218 25.3427 22.0981C24.6145 22.7743 23.6605 23.1552 22.6668 23.1666V23.1666Z" fill="#191918"/>
</svg>
