<svg width="32" height="33" viewBox="0 0 32 33" fill="none" xmlns="http://www.w3.org/2000/svg">
<path d="M26.88 7.16656C25.4666 5.74951 23.593 4.88462 21.5977 4.72812C19.6025 4.57163 17.617 5.13385 16 6.31323C14.3035 5.05141 12.192 4.47924 10.0905 4.71194C7.98909 4.94465 6.05388 5.96493 4.67459 7.56734C3.2953 9.16975 2.57439 11.2353 2.65703 13.3479C2.73967 15.4606 3.61972 17.4635 5.11996 18.9532L13.4 27.2466C14.0933 27.9289 15.0271 28.3114 16 28.3114C16.9728 28.3114 17.9066 27.9289 18.6 27.2466L26.88 18.9532C28.4367 17.3869 29.3105 15.2683 29.3105 13.0599C29.3105 10.8515 28.4367 8.73287 26.88 7.16656V7.16656ZM25 17.1132L16.72 25.3932C16.6257 25.4884 16.5136 25.5639 16.39 25.6154C16.2664 25.667 16.1339 25.6935 16 25.6935C15.8661 25.6935 15.7335 25.667 15.6099 25.6154C15.4863 25.5639 15.3742 25.4884 15.28 25.3932L6.99996 17.0732C5.9543 16.0044 5.36877 14.5685 5.36877 13.0732C5.36877 11.5779 5.9543 10.1421 6.99996 9.07323C8.0655 8.02121 9.50259 7.43132 11 7.43132C12.4973 7.43132 13.9344 8.02121 15 9.07323C15.1239 9.1982 15.2714 9.29739 15.4339 9.36508C15.5963 9.43278 15.7706 9.46763 15.9466 9.46763C16.1226 9.46763 16.2969 9.43278 16.4594 9.36508C16.6219 9.29739 16.7693 9.1982 16.8933 9.07323C17.9588 8.02121 19.3959 7.43132 20.8933 7.43132C22.3907 7.43132 23.8278 8.02121 24.8933 9.07323C25.9533 10.1281 26.5581 11.5561 26.578 13.0515C26.598 14.5468 26.0315 15.9905 25 17.0732V17.1132Z" fill="#191918"/>
</svg>
