<svg width="32" height="32" viewBox="0 0 32 32" fill="none" xmlns="http://www.w3.org/2000/svg">
<path d="M15.0534 20.3867C14.9961 20.4501 14.9426 20.5169 14.8934 20.5867C14.843 20.6611 14.8026 20.7418 14.7734 20.8267C14.735 20.9023 14.708 20.9832 14.6934 21.0667C14.6869 21.1555 14.6869 21.2446 14.6934 21.3334C14.6889 21.5083 14.7254 21.6818 14.8001 21.8401C14.86 22.0055 14.9555 22.1558 15.0799 22.2802C15.2044 22.4047 15.3546 22.5002 15.5201 22.5601C15.6797 22.6306 15.8523 22.6671 16.0268 22.6671C16.2012 22.6671 16.3738 22.6306 16.5334 22.5601C16.6989 22.5002 16.8491 22.4047 16.9736 22.2802C17.098 22.1558 17.1935 22.0055 17.2534 21.8401C17.3126 21.678 17.3398 21.5059 17.3334 21.3334C17.3344 21.1579 17.3008 20.984 17.2344 20.8215C17.1681 20.6591 17.0703 20.5113 16.9468 20.3867C16.8228 20.2618 16.6753 20.1626 16.5129 20.0949C16.3504 20.0272 16.1761 19.9924 16.0001 19.9924C15.8241 19.9924 15.6498 20.0272 15.4873 20.0949C15.3248 20.1626 15.1774 20.2618 15.0534 20.3867ZM16.0001 2.66675C13.363 2.66675 10.7851 3.44873 8.59248 4.91382C6.39983 6.37891 4.69086 8.46129 3.68169 10.8976C2.67253 13.334 2.40848 16.0149 2.92295 18.6013C3.43742 21.1877 4.7073 23.5635 6.572 25.4282C8.4367 27.2929 10.8125 28.5628 13.3989 29.0772C15.9853 29.5917 18.6662 29.3276 21.1025 28.3185C23.5389 27.3093 25.6213 25.6003 27.0863 23.4077C28.5514 21.215 29.3334 18.6372 29.3334 16.0001C29.3334 14.2491 28.9885 12.5153 28.3185 10.8976C27.6484 9.27996 26.6663 7.81011 25.4282 6.57199C24.1901 5.33388 22.7202 4.35175 21.1025 3.68169C19.4849 3.01162 17.751 2.66675 16.0001 2.66675V2.66675ZM16.0001 26.6667C13.8904 26.6667 11.8281 26.0412 10.074 24.8691C8.31988 23.697 6.95271 22.0311 6.14537 20.082C5.33804 18.133 5.1268 15.9882 5.53838 13.9191C5.94995 11.85 6.96585 9.94937 8.45762 8.45761C9.94938 6.96585 11.85 5.94995 13.9191 5.53837C15.9883 5.1268 18.133 5.33803 20.082 6.14537C22.0311 6.9527 23.697 8.31987 24.8691 10.074C26.0412 11.8281 26.6668 13.8904 26.6668 16.0001C26.6668 18.8291 25.5429 21.5422 23.5426 23.5426C21.5422 25.5429 18.8291 26.6667 16.0001 26.6667V26.6667ZM16.0001 9.33341C15.2975 9.33296 14.6072 9.51758 13.9986 9.86867C13.3901 10.2198 12.8847 10.725 12.5334 11.3334C12.4369 11.4852 12.3722 11.6549 12.343 11.8323C12.3138 12.0098 12.3208 12.1913 12.3636 12.3659C12.4064 12.5406 12.484 12.7048 12.5919 12.8487C12.6998 12.9925 12.8357 13.1131 12.9914 13.2031C13.1471 13.2931 13.3194 13.3506 13.4979 13.3723C13.6764 13.394 13.8574 13.3794 14.0301 13.3293C14.2028 13.2791 14.3636 13.1946 14.5028 13.0808C14.642 12.9669 14.7567 12.8261 14.8401 12.6667C14.9576 12.4633 15.1267 12.2945 15.3304 12.1774C15.5341 12.0603 15.7651 11.9991 16.0001 12.0001C16.3537 12.0001 16.6928 12.1406 16.9429 12.3906C17.1929 12.6407 17.3334 12.9798 17.3334 13.3334C17.3334 13.687 17.1929 14.0262 16.9429 14.2762C16.6928 14.5263 16.3537 14.6667 16.0001 14.6667C15.6465 14.6667 15.3073 14.8072 15.0573 15.0573C14.8072 15.3073 14.6668 15.6465 14.6668 16.0001V17.3334C14.6668 17.687 14.8072 18.0262 15.0573 18.2762C15.3073 18.5263 15.6465 18.6667 16.0001 18.6667C16.3537 18.6667 16.6928 18.5263 16.9429 18.2762C17.1929 18.0262 17.3334 17.687 17.3334 17.3334V17.0934C18.2152 16.7734 18.9566 16.1537 19.4278 15.3426C19.899 14.5314 20.0701 13.5805 19.9113 12.6559C19.7524 11.7314 19.2737 10.8921 18.5587 10.2848C17.8438 9.67743 16.9381 9.34069 16.0001 9.33341V9.33341Z" fill="#191918"/>
</svg>
