<svg width="97" height="97" viewBox="0 0 97 97" fill="none" xmlns="http://www.w3.org/2000/svg">
<rect x="0.5" y="0.5" width="96" height="96" rx="48" fill="#D0F4D8"/>
<circle cx="48.5" cy="48.5" r="40" fill="#ABE5B8"/>
<path d="M55.7533 39.94L44.3133 51.4067L39.9133 47.0067C39.6742 46.7276 39.38 46.5008 39.0492 46.3408C38.7183 46.1807 38.358 46.0908 37.9907 46.0766C37.6235 46.0624 37.2573 46.1243 36.9151 46.2583C36.5729 46.3924 36.2621 46.5958 36.0022 46.8556C35.7423 47.1155 35.539 47.4263 35.4049 47.7685C35.2708 48.1107 35.2089 48.4769 35.2231 48.8442C35.2373 49.2114 35.3273 49.5718 35.4873 49.9026C35.6474 50.2335 35.8741 50.5277 36.1533 50.7667L42.4199 57.06C42.6691 57.3072 42.9646 57.5027 43.2895 57.6354C43.6144 57.7681 43.9623 57.8354 44.3133 57.8334C45.0128 57.8304 45.6832 57.5527 46.1799 57.06L59.5133 43.7267C59.7632 43.4788 59.9616 43.1839 60.097 42.8589C60.2324 42.534 60.3021 42.1854 60.3021 41.8334C60.3021 41.4813 60.2324 41.1328 60.097 40.8078C59.9616 40.4829 59.7632 40.1879 59.5133 39.94C59.0136 39.4434 58.3378 39.1646 57.6333 39.1646C56.9288 39.1646 56.2529 39.4434 55.7533 39.94ZM48.4999 21.8334C43.2258 21.8334 38.07 23.3973 33.6847 26.3275C29.2994 29.2577 25.8815 33.4225 23.8631 38.2951C21.8448 43.1678 21.3167 48.5296 22.3457 53.7024C23.3746 58.8753 25.9143 63.6268 29.6438 67.3562C33.3732 71.0856 38.1247 73.6254 43.2975 74.6543C48.4704 75.6833 53.8321 75.1552 58.7048 73.1368C63.5775 71.1185 67.7423 67.7006 70.6725 63.3152C73.6026 58.9299 75.1666 53.7742 75.1666 48.5C75.1666 44.9981 74.4768 41.5305 73.1367 38.2951C71.7966 35.0598 69.8323 32.1201 67.3561 29.6439C64.8799 27.1676 61.9402 25.2034 58.7048 23.8633C55.4695 22.5231 52.0018 21.8334 48.4999 21.8334V21.8334ZM48.4999 69.8334C44.2806 69.8334 40.156 68.5822 36.6478 66.2381C33.1395 63.8939 30.4052 60.5621 28.7905 56.664C27.1758 52.7658 26.7534 48.4764 27.5765 44.3381C28.3997 40.1999 30.4315 36.3986 33.415 33.4151C36.3985 30.4316 40.1997 28.3998 44.338 27.5766C48.4763 26.7535 52.7657 27.1759 56.6638 28.7906C60.562 30.4053 63.8938 33.1396 66.2379 36.6479C68.5821 40.1561 69.8333 44.2807 69.8333 48.5C69.8333 54.158 67.5857 59.5842 63.5849 63.585C59.5841 67.5858 54.1579 69.8334 48.4999 69.8334V69.8334Z" fill="#1AAE39"/>
</svg>
